<?xml version="1.0" standalone="no"?><!DOCTYPE svg PUBLIC "-//W3C//DTD SVG 1.1//EN" "http://www.w3.org/Graphics/SVG/1.1/DTD/svg11.dtd"><svg t="1699595096945" class="icon" viewBox="0 0 1024 1024" version="1.1" xmlns="http://www.w3.org/2000/svg" p-id="1732" xmlns:xlink="http://www.w3.org/1999/xlink" width="200" height="200"><path d="M341.333333 125.952m170.666667 0l0 0q170.666667 0 170.666667 170.666667l0 471.381333q0 170.666667-170.666667 170.666667l0 0q-170.666667 0-170.666667-170.666667l0-471.381333q0-170.666667 170.666667-170.666667Z" fill="#A02D67" p-id="1733"></path><path d="M341.333333 85.333333m170.666667 0l0 0q170.666667 0 170.666667 170.666667l0 471.381333q0 170.666667-170.666667 170.666667l0 0q-170.666667 0-170.666667-170.666667l0-471.381333q0-170.666667 170.666667-170.666667Z" fill="#D04C83" p-id="1734"></path><path d="M512 872.448a145.237333 145.237333 0 0 1-145.066667-145.066667V256a145.066667 145.066667 0 1 1 290.133334 0v471.381333a145.237333 145.237333 0 0 1-145.066667 145.066667z" fill="#D86097" p-id="1735"></path><path d="M454.570667 291.370667a53.077333 53.077333 0 1 1 53.077333-53.034667 53.162667 53.162667 0 0 1-53.077333 53.034667zM569.429333 291.370667a53.077333 53.077333 0 1 1 53.077334-53.034667 53.162667 53.162667 0 0 1-53.077334 53.034667z" fill="#4F2AB5" p-id="1736"></path><path d="M454.570667 377.386667a53.077333 53.077333 0 1 1 53.077333-53.034667 53.162667 53.162667 0 0 1-53.077333 53.034667zM569.429333 377.386667a53.077333 53.077333 0 1 1 53.077334-53.034667 53.162667 53.162667 0 0 1-53.077334 53.034667z" fill="#4F2AB5" p-id="1737"></path><path d="M454.570667 238.336m-28.714667 0a28.714667 28.714667 0 1 0 57.429333 0 28.714667 28.714667 0 1 0-57.429333 0Z" fill="#6ED6AB" p-id="1738"></path><path d="M569.429333 238.336m-28.714666 0a28.714667 28.714667 0 1 0 57.429333 0 28.714667 28.714667 0 1 0-57.429333 0Z" fill="#6ED6AB" p-id="1739"></path><path d="M454.570667 324.352m-28.714667 0a28.714667 28.714667 0 1 0 57.429333 0 28.714667 28.714667 0 1 0-57.429333 0Z" fill="#6ED6AB" p-id="1740"></path><path d="M569.429333 324.352m-28.714666 0a28.714667 28.714667 0 1 0 57.429333 0 28.714667 28.714667 0 1 0-57.429333 0Z" fill="#6ED6AB" p-id="1741"></path><path d="M454.570667 712.106667a53.077333 53.077333 0 1 1 53.077333-53.077334 53.162667 53.162667 0 0 1-53.077333 53.077334zM569.429333 712.106667a53.077333 53.077333 0 1 1 53.077334-53.077334 53.162667 53.162667 0 0 1-53.077334 53.077334z" fill="#4F2AB5" p-id="1742"></path><path d="M454.570667 798.122667a53.077333 53.077333 0 1 1 53.077333-53.077334 53.162667 53.162667 0 0 1-53.077333 53.077334zM569.429333 798.122667a53.077333 53.077333 0 1 1 53.077334-53.077334 53.162667 53.162667 0 0 1-53.077334 53.077334z" fill="#4F2AB5" p-id="1743"></path><path d="M454.570667 659.029333m-28.714667 0a28.714667 28.714667 0 1 0 57.429333 0 28.714667 28.714667 0 1 0-57.429333 0Z" fill="#EDC35B" p-id="1744"></path><path d="M569.429333 659.029333m-28.714666 0a28.714667 28.714667 0 1 0 57.429333 0 28.714667 28.714667 0 1 0-57.429333 0Z" fill="#EDC35B" p-id="1745"></path><path d="M454.570667 745.045333m-28.714667 0a28.714667 28.714667 0 1 0 57.429333 0 28.714667 28.714667 0 1 0-57.429333 0Z" fill="#EDC35B" p-id="1746"></path><path d="M569.429333 745.045333m-28.714666 0a28.714667 28.714667 0 1 0 57.429333 0 28.714667 28.714667 0 1 0-57.429333 0Z" fill="#EDC35B" p-id="1747"></path><path d="M256 213.76m42.666667 0l0 0q42.666667 0 42.666666 42.666667l0 42.666666q0 42.666667-42.666666 42.666667l0 0q-42.666667 0-42.666667-42.666667l0-42.666666q0-42.666667 42.666667-42.666667Z" fill="#301196" p-id="1748"></path><path d="M682.666667 213.76m42.666666 0l0 0q42.666667 0 42.666667 42.666667l0 42.666666q0 42.666667-42.666667 42.666667l0 0q-42.666667 0-42.666666-42.666667l0-42.666666q0-42.666667 42.666666-42.666667Z" fill="#301196" p-id="1749"></path><path d="M256 636.416m42.666667 0l0 0q42.666667 0 42.666666 42.666667l0 42.666666q0 42.666667-42.666666 42.666667l0 0q-42.666667 0-42.666667-42.666667l0-42.666666q0-42.666667 42.666667-42.666667Z" fill="#301196" p-id="1750"></path><path d="M682.666667 636.416m42.666666 0l0 0q42.666667 0 42.666667 42.666667l0 42.666666q0 42.666667-42.666667 42.666667l0 0q-42.666667 0-42.666666-42.666667l0-42.666666q0-42.666667 42.666666-42.666667Z" fill="#301196" p-id="1751"></path><path d="M512 491.690667m-60.544 0a60.544 60.544 0 1 0 121.088 0 60.544 60.544 0 1 0-121.088 0Z" fill="#D04C83" p-id="1752"></path><path d="M512 85.333333a170.666667 170.666667 0 0 1 170.666667 170.666667v0.426667a42.666667 42.666667 0 0 1 85.333333 0v42.666666a42.666667 42.666667 0 0 1-85.333333 0v379.989334a42.666667 42.666667 0 1 1 85.333333 0v42.666666a42.666667 42.666667 0 0 1-85.333333 0V768a170.666667 170.666667 0 1 1-341.333334 0v-46.250667a42.666667 42.666667 0 0 1-85.333333 0v-42.666666a42.666667 42.666667 0 0 1 85.333333 0V299.093333a42.666667 42.666667 0 0 1-85.333333 0v-42.666666a42.666667 42.666667 0 0 1 85.333333 0V256a170.666667 170.666667 0 0 1 170.666667-170.666667m0-42.666666a213.674667 213.674667 0 0 0-196.437333 130.133333A85.376 85.376 0 0 0 213.333333 256.426667v42.666666a85.418667 85.418667 0 0 0 85.333334 85.333334v209.322666a85.418667 85.418667 0 0 0-85.333334 85.333334v42.666666a85.418667 85.418667 0 0 0 85.333334 85.333334l3.584-0.085334a213.333333 213.333333 0 0 0 419.498666 0l3.584 0.085334a85.418667 85.418667 0 0 0 85.333334-85.333334v-42.666666a85.418667 85.418667 0 0 0-85.333334-85.333334V384.426667a85.418667 85.418667 0 0 0 85.333334-85.333334v-42.666666a85.376 85.376 0 0 0-102.314667-83.626667A213.546667 213.546667 0 0 0 512 42.666667z" fill="#301196" p-id="1753"></path></svg>